<?xml version="1.0" encoding="UTF-8"?>
<svg xmlns="http://www.w3.org/2000/svg" width="1492" height="377" viewBox="0 0 1492 377" role="img" aria-labelledby="title desc">
  <title id="title">Pinho Law Logo</title>
  <desc id="desc">Vector logo for Pinho Law with navy monogram and wordmark plus gold laurel and divider line.</desc>
  <g id="pinho-law-logo" fill-rule="evenodd" clip-rule="evenodd">
    <path id="gold-laurel-and-divider" fill="#CA9A40" d="M287.00 373.50 L284.00 373.50 L283.00 374.50 L271.00 374.50 L270.00 373.50 L265.00 372.50 L257.00 367.50 L250.00 357.50 L248.00 358.50 L244.00 358.50 L243.00 359.50 L235.00 360.50 L233.50 362.00 L236.00 362.50 L239.00 364.50 L244.00 365.50 L249.00 368.50 L249.50 370.00 L247.00 375.50 L244.00 375.50 L237.00 371.50 L235.00 371.50 L232.00 369.50 L230.00 369.50 L229.00 368.50 L227.00 368.50 L220.00 365.50 L216.00 365.50 L215.00 364.50 L208.00 364.50 L207.00 363.50 L204.00 363.50 L203.00 364.50 L195.00 364.50 L194.00 365.50 L187.00 366.50 L186.00 367.50 L178.00 369.50 L166.00 375.50 L163.00 375.50 L160.50 369.00 L162.00 367.50 L168.00 364.50 L170.00 364.50 L173.00 362.50 L175.00 362.50 L176.50 361.00 L172.00 360.50 L171.00 359.50 L167.00 359.50 L166.00 358.50 L162.00 358.50 L161.00 357.50 L160.00 357.50 L157.50 360.00 L155.50 364.00 L148.00 371.50 L146.00 372.50 L144.00 372.50 L140.00 374.50 L128.00 374.50 L127.00 373.50 L121.00 372.50 L119.00 371.50 L117.50 369.00 L123.00 363.50 L124.00 363.50 L128.00 359.50 L129.00 359.50 L134.00 355.50 L136.00 355.50 L137.00 354.50 L142.00 354.50 L144.50 353.00 L128.00 346.50 L126.50 349.00 L119.00 356.50 L112.00 359.50 L98.00 359.50 L97.00 358.50 L90.00 356.50 L88.50 354.00 L99.00 345.50 L106.00 341.50 L114.00 340.50 L114.50 339.00 L111.00 337.50 L100.00 329.50 L98.00 329.50 L92.00 334.50 L85.00 337.50 L75.00 337.50 L74.00 336.50 L69.00 335.50 L60.00 330.50 L58.50 329.00 L59.00 326.50 L61.00 326.50 L70.00 321.50 L72.00 321.50 L73.00 320.50 L77.00 320.50 L78.00 319.50 L85.50 319.00 L77.00 310.50 L75.00 309.50 L63.00 315.50 L54.00 315.50 L42.00 309.50 L36.50 304.00 L38.00 302.50 L45.00 300.50 L46.00 299.50 L49.00 299.50 L50.00 298.50 L54.00 298.50 L55.00 297.50 L58.00 297.50 L59.00 298.50 L64.00 298.50 L64.50 297.00 L59.50 291.00 L59.50 290.00 L55.00 285.50 L48.00 287.50 L47.00 288.50 L38.00 288.50 L28.00 283.50 L19.50 274.00 L21.00 272.50 L23.00 272.50 L24.00 271.50 L30.00 271.50 L31.00 270.50 L40.00 270.50 L41.00 271.50 L44.00 271.50 L45.00 272.50 L46.00 272.50 L46.50 271.00 L41.50 261.00 L40.00 259.50 L34.00 259.50 L33.00 260.50 L28.00 260.50 L27.00 259.50 L24.00 259.50 L20.00 257.50 L12.50 250.00 L7.50 241.00 L8.00 239.50 L17.00 239.50 L18.00 240.50 L23.00 240.50 L32.00 244.50 L34.00 246.50 L34.50 244.00 L32.50 240.00 L32.50 237.00 L31.50 236.00 L31.50 234.00 L30.50 233.00 L29.00 227.50 L27.00 227.50 L26.00 228.50 L18.00 228.50 L17.00 227.50 L14.00 227.50 L12.00 226.50 L4.50 220.00 L-0.50 211.00 L0.00 208.50 L14.00 209.50 L15.00 210.50 L19.00 211.50 L25.00 216.50 L26.50 216.00 L26.50 211.00 L25.50 210.00 L25.50 202.00 L24.50 201.00 L24.50 199.00 L20.00 198.50 L19.00 197.50 L14.00 196.50 L9.00 193.50 L3.50 187.00 L2.50 183.00 L1.50 182.00 L1.50 179.00 L0.50 178.00 L0.50 173.00 L4.00 172.50 L7.00 174.50 L9.00 174.50 L13.00 176.50 L24.00 186.50 L24.50 186.00 L24.50 169.00 L25.50 167.00 L24.00 165.50 L19.00 164.50 L11.50 158.00 L8.50 152.00 L8.50 149.00 L7.50 148.00 L8.00 137.50 L11.00 139.50 L13.00 139.50 L15.00 141.50 L19.00 143.50 L27.00 152.50 L28.50 149.00 L29.50 141.00 L31.50 137.00 L31.50 135.00 L30.00 133.50 L24.00 130.50 L18.50 125.00 L17.50 121.00 L16.50 120.00 L16.50 107.00 L20.00 106.50 L22.00 108.50 L23.00 108.50 L30.50 116.00 L32.50 121.00 L34.50 123.00 L34.50 124.00 L35.50 124.00 L37.50 120.00 L37.50 118.00 L42.50 108.00 L42.50 107.00 L35.50 100.00 L34.50 96.00 L33.50 95.00 L33.50 86.00 L34.50 85.00 L35.50 80.00 L38.00 76.50 L42.50 81.00 L45.50 86.00 L45.50 88.00 L47.50 92.00 L48.00 97.50 L53.50 90.00 L56.50 84.00 L59.50 81.00 L59.50 79.00 L55.50 75.00 L52.50 69.00 L52.50 60.00 L53.50 59.00 L54.50 54.00 L56.50 52.00 L56.50 51.00 L59.00 48.50 L61.50 51.00 L64.50 57.00 L64.50 60.00 L65.50 61.00 L66.00 72.50 L80.50 57.00 L77.50 53.00 L76.50 49.00 L75.50 48.00 L75.50 40.00 L79.50 32.00 L83.00 28.50 L85.50 30.00 L87.50 37.00 L88.50 38.00 L88.50 47.00 L87.50 48.00 L87.50 50.00 L88.00 50.50 L90.00 49.50 L93.00 46.50 L94.00 46.50 L97.00 43.50 L102.50 40.00 L102.50 38.00 L100.50 34.00 L99.50 25.00 L102.50 18.00 L111.00 10.50 L112.50 12.00 L112.50 14.00 L113.50 15.00 L113.50 27.00 L111.50 31.00 L112.00 33.50 L117.00 31.50 L119.00 29.50 L126.00 26.50 L127.50 25.00 L127.50 12.00 L129.50 8.00 L134.00 3.50 L141.00 -0.50 L143.50 0.00 L143.50 9.00 L142.50 10.00 L142.50 13.00 L137.50 20.00 L138.00 21.50 L139.00 20.50 L146.00 18.50 L157.00 9.50 L167.00 9.50 L168.00 10.50 L171.00 10.50 L173.00 11.50 L175.50 14.00 L167.00 20.50 L161.00 23.50 L150.00 23.50 L146.00 21.50 L142.00 21.50 L139.00 23.50 L136.50 24.00 L137.00 25.50 L143.00 26.50 L151.00 30.50 L155.50 35.00 L156.50 38.00 L151.00 39.50 L150.00 40.50 L141.00 40.50 L140.00 39.50 L136.00 38.50 L131.50 35.00 L131.50 34.00 L127.00 28.50 L118.00 32.50 L110.50 38.00 L114.00 39.50 L119.00 39.50 L120.00 40.50 L124.00 41.50 L132.50 48.00 L130.00 50.50 L126.00 51.50 L125.00 52.50 L114.00 52.50 L113.00 51.50 L111.00 51.50 L104.00 44.50 L102.00 43.50 L100.00 45.50 L96.00 47.50 L92.00 51.50 L91.00 51.50 L86.50 56.00 L89.00 56.50 L90.00 55.50 L97.00 55.50 L98.00 56.50 L100.00 56.50 L101.00 57.50 L108.00 59.50 L108.50 61.00 L103.00 66.50 L99.00 67.50 L98.00 68.50 L88.00 68.50 L84.00 66.50 L82.00 64.50 L79.00 63.50 L67.50 75.00 L66.50 77.00 L67.00 77.50 L71.00 76.50 L72.00 75.50 L84.00 75.50 L85.00 76.50 L88.00 76.50 L90.00 77.50 L90.50 79.00 L84.00 85.50 L79.00 88.50 L76.00 88.50 L75.00 89.50 L67.00 88.50 L64.00 86.50 L60.00 85.50 L50.50 100.00 L52.00 100.50 L59.00 97.50 L71.00 96.50 L71.50 99.00 L69.50 103.00 L64.00 109.50 L59.00 112.50 L57.00 112.50 L56.00 113.50 L45.00 112.50 L40.50 120.00 L40.50 122.00 L37.50 128.00 L38.00 129.50 L39.00 129.50 L45.00 124.50 L47.00 124.50 L51.00 122.50 L62.00 122.50 L62.50 125.00 L58.50 132.00 L53.00 137.50 L47.00 140.50 L39.00 140.50 L38.00 139.50 L35.00 139.50 L33.50 142.00 L33.50 145.00 L32.50 146.00 L32.50 149.00 L31.50 150.00 L31.50 155.00 L30.50 156.00 L31.00 163.50 L32.50 161.00 L41.00 153.50 L43.00 153.50 L50.00 150.50 L55.00 150.50 L55.50 154.00 L54.50 155.00 L54.50 157.00 L51.50 164.00 L47.00 168.50 L42.00 171.50 L39.00 171.50 L38.00 172.50 L33.00 172.50 L29.50 174.00 L30.00 189.50 L33.50 184.00 L39.00 179.50 L50.00 174.50 L53.50 175.00 L53.50 181.00 L52.50 182.00 L52.50 185.00 L48.50 192.00 L42.00 197.50 L38.00 198.50 L37.00 199.50 L30.00 200.50 L29.50 202.00 L30.50 203.00 L31.50 214.00 L33.00 216.50 L35.50 211.00 L42.00 203.50 L52.00 197.50 L53.50 198.00 L53.50 210.00 L52.50 211.00 L51.50 216.00 L45.00 223.50 L44.00 223.50 L42.00 225.50 L40.00 225.50 L36.00 227.50 L35.50 231.00 L36.50 232.00 L37.50 237.00 L39.50 240.00 L39.50 242.00 L42.00 247.50 L43.50 239.00 L46.50 233.00 L56.00 222.50 L58.00 221.50 L59.50 222.00 L60.50 228.00 L61.50 229.00 L61.50 239.00 L60.50 240.00 L59.50 245.00 L58.50 247.00 L51.00 254.50 L48.00 255.50 L46.50 258.00 L50.50 266.00 L55.00 272.50 L55.50 269.00 L56.50 268.00 L56.50 263.00 L59.50 257.00 L68.00 246.50 L70.50 248.00 L72.50 255.00 L73.50 256.00 L73.50 269.00 L72.50 270.00 L71.50 274.00 L68.50 277.00 L68.50 278.00 L62.50 283.00 L65.50 288.00 L72.00 294.50 L72.50 294.00 L72.50 286.00 L73.50 285.00 L73.50 282.00 L79.50 270.00 L79.50 268.00 L81.00 267.50 L84.50 271.00 L89.50 282.00 L89.50 294.00 L88.50 295.00 L87.50 299.00 L83.50 304.00 L82.50 307.00 L84.00 307.50 L95.00 317.50 L96.50 317.00 L95.50 316.00 L95.50 312.00 L94.50 311.00 L94.50 303.00 L95.50 302.00 L95.50 299.00 L96.50 298.00 L97.50 293.00 L101.00 285.50 L106.50 291.00 L106.50 292.00 L110.50 297.00 L111.50 301.00 L112.50 302.00 L112.50 305.00 L113.50 306.00 L111.50 316.00 L106.50 326.00 L121.00 334.50 L121.50 331.00 L120.50 330.00 L120.50 321.00 L121.50 320.00 L123.50 309.00 L124.50 307.00 L127.00 305.50 L132.50 311.00 L132.50 312.00 L136.50 317.00 L137.50 321.00 L138.50 322.00 L138.50 333.00 L137.50 334.00 L136.50 340.00 L135.50 341.00 L137.00 342.50 L139.00 342.50 L144.00 345.50 L146.00 345.50 L153.00 348.50 L155.50 348.00 L150.50 341.00 L150.50 339.00 L149.50 338.00 L149.50 334.00 L148.50 333.00 L148.50 323.00 L149.50 322.00 L150.00 312.50 L152.00 312.50 L157.00 316.50 L158.00 316.50 L165.50 325.00 L168.50 331.00 L168.50 335.00 L169.50 336.00 L169.50 339.00 L168.50 340.00 L168.50 345.00 L167.50 346.00 L167.50 349.00 L166.50 351.00 L168.00 352.50 L171.00 352.50 L172.00 353.50 L175.00 353.50 L176.00 354.50 L189.00 355.50 L190.00 356.50 L213.00 356.50 L214.00 355.50 L223.00 355.50 L224.00 354.50 L230.00 354.50 L231.00 353.50 L243.00 352.50 L243.50 351.00 L242.50 350.00 L241.50 344.00 L240.50 343.00 L240.50 335.00 L241.50 334.00 L241.50 331.00 L246.50 322.00 L252.00 316.50 L253.00 316.50 L258.00 312.50 L260.50 313.00 L260.50 320.00 L261.50 321.00 L261.50 333.00 L260.50 334.00 L259.50 340.00 L254.50 348.00 L257.00 348.50 L258.00 347.50 L263.00 346.50 L266.00 344.50 L268.00 344.50 L271.00 342.50 L273.00 342.50 L273.50 339.00 L271.50 335.00 L271.50 323.00 L275.50 314.00 L282.00 306.50 L284.00 305.50 L285.50 307.00 L285.50 309.00 L287.50 313.00 L288.50 321.00 L289.50 322.00 L289.50 329.00 L288.50 330.00 L289.00 334.50 L295.00 331.50 L303.50 325.00 L297.50 315.00 L297.50 311.00 L296.50 310.00 L296.50 308.00 L297.50 307.00 L297.50 302.00 L302.50 292.00 L308.00 286.50 L309.50 287.00 L311.50 291.00 L311.50 293.00 L314.50 300.00 L314.50 304.00 L315.50 305.00 L315.50 308.00 L314.50 309.00 L314.50 315.00 L313.50 317.00 L315.00 317.50 L318.00 314.50 L319.00 314.50 L327.50 306.00 L323.50 301.00 L320.50 295.00 L320.50 292.00 L319.50 291.00 L319.50 286.00 L320.50 285.00 L321.50 279.00 L325.50 271.00 L329.00 267.50 L330.50 269.00 L334.50 277.00 L334.50 279.00 L336.50 282.00 L338.00 295.50 L345.50 287.00 L347.50 283.00 L340.50 277.00 L337.50 271.00 L337.50 269.00 L336.50 268.00 L336.50 264.00 L335.50 263.00 L336.50 254.00 L341.00 246.50 L342.00 246.50 L345.50 250.00 L345.50 251.00 L348.50 254.00 L349.50 257.00 L351.50 259.00 L352.50 263.00 L353.50 264.00 L353.50 269.00 L355.00 272.50 L359.50 266.00 L363.50 257.00 L356.00 252.50 L350.50 246.00 L350.50 244.00 L348.50 240.00 L348.50 229.00 L349.50 228.00 L350.50 222.00 L352.00 221.50 L362.50 232.00 L366.50 239.00 L368.00 247.50 L371.50 240.00 L373.50 232.00 L374.50 231.00 L374.00 227.50 L365.00 223.50 L358.50 217.00 L358.50 215.00 L356.50 211.00 L356.50 198.00 L358.00 197.50 L360.00 198.50 L362.00 200.50 L369.00 204.50 L372.50 208.00 L377.00 216.50 L378.50 214.00 L379.50 202.00 L378.00 200.50 L375.00 200.50 L374.00 199.50 L369.00 198.50 L360.50 191.00 L357.50 185.00 L357.50 182.00 L356.50 181.00 L356.50 175.00 L359.00 174.50 L360.00 175.50 L362.00 175.50 L373.00 181.50 L381.00 191.50 L381.50 176.00 L380.00 173.50 L369.00 172.50 L365.00 170.50 L357.50 162.00 L355.50 155.00 L354.50 154.00 L354.50 151.00 L359.00 150.50 L360.00 151.50 L362.00 151.50 L363.00 152.50 L370.00 154.50 L372.00 156.50 L373.00 156.50 L378.50 162.00 L379.00 163.50 L379.50 156.00 L378.50 155.00 L378.50 151.00 L377.50 150.00 L376.50 142.00 L375.00 139.50 L368.00 140.50 L367.00 139.50 L362.00 139.50 L361.00 138.50 L357.00 137.50 L350.50 131.00 L347.50 125.00 L348.00 122.50 L359.00 122.50 L366.00 125.50 L372.00 130.50 L372.50 130.00 L371.50 125.00 L369.50 122.00 L369.50 120.00 L366.50 115.00 L366.00 112.50 L360.00 112.50 L359.00 113.50 L354.00 113.50 L353.00 112.50 L351.00 112.50 L347.00 110.50 L342.50 106.00 L338.50 99.00 L339.00 96.50 L342.00 96.50 L343.00 97.50 L351.00 97.50 L352.00 98.50 L355.00 98.50 L359.00 101.50 L359.50 100.00 L352.50 90.00 L351.50 87.00 L350.00 85.50 L341.00 89.50 L334.00 89.50 L326.00 85.50 L319.50 79.00 L320.00 77.50 L322.00 76.50 L325.00 76.50 L326.00 75.50 L336.00 75.50 L337.00 76.50 L341.00 76.50 L342.00 77.50 L343.50 77.00 L342.50 75.00 L331.00 63.50 L321.00 68.50 L311.00 68.50 L307.00 66.50 L301.50 61.00 L307.00 57.50 L313.00 56.50 L314.00 55.50 L319.00 55.50 L320.00 56.50 L323.50 56.00 L318.00 50.50 L317.00 50.50 L310.00 44.50 L308.00 43.50 L301.00 50.50 L297.00 52.50 L293.00 52.50 L292.00 53.50 L282.00 51.50 L277.50 48.00 L284.00 42.50 L288.00 40.50 L291.00 40.50 L292.00 39.50 L300.00 39.50 L300.50 39.00 L297.00 35.50 L283.00 28.50 L279.50 34.00 L276.00 37.50 L270.00 40.50 L260.00 40.50 L259.00 39.50 L256.00 39.50 L253.50 37.00 L260.00 30.50 L267.00 26.50 L271.00 26.50 L274.50 25.00 L268.00 21.50 L264.00 21.50 L260.00 23.50 L250.00 23.50 L241.00 19.50 L236.50 16.00 L236.50 15.00 L234.50 13.00 L242.00 10.50 L243.00 9.50 L252.00 9.50 L253.00 10.50 L257.00 11.50 L266.00 19.50 L268.00 20.50 L271.00 20.50 L272.00 21.50 L272.50 20.00 L270.50 18.00 L267.50 12.00 L267.50 9.00 L266.50 8.00 L266.50 0.00 L269.00 -0.50 L276.00 3.50 L282.50 11.00 L282.50 13.00 L283.50 14.00 L283.50 22.00 L282.50 23.00 L282.50 25.00 L284.00 26.50 L291.00 29.50 L293.00 31.50 L299.00 34.50 L299.50 33.00 L297.50 30.00 L297.50 27.00 L296.50 26.00 L296.50 16.00 L297.50 15.00 L297.50 13.00 L299.00 11.50 L302.00 12.50 L307.50 18.00 L307.50 19.00 L309.50 21.00 L309.50 24.00 L310.50 25.00 L309.50 35.00 L307.50 39.00 L313.00 44.50 L314.00 44.50 L321.00 50.50 L322.50 50.00 L322.50 47.00 L321.50 46.00 L321.50 40.00 L322.50 39.00 L322.50 36.00 L323.50 35.00 L324.50 30.00 L327.00 28.50 L331.50 33.00 L334.50 39.00 L334.50 49.00 L330.50 56.00 L330.50 58.00 L345.00 73.50 L345.50 71.00 L344.50 70.00 L344.50 61.00 L345.50 60.00 L346.50 55.00 L351.00 48.50 L354.50 52.00 L357.50 58.00 L357.50 69.00 L354.50 75.00 L350.50 79.00 L350.50 81.00 L357.50 90.00 L362.00 97.50 L364.50 87.00 L368.50 80.00 L371.00 77.50 L372.00 77.50 L374.50 80.00 L375.50 84.00 L376.50 85.00 L376.50 96.00 L372.50 103.00 L367.50 108.00 L371.50 116.00 L371.50 118.00 L374.50 123.00 L374.50 125.00 L375.50 125.00 L379.50 116.00 L384.00 111.50 L392.00 106.50 L393.50 107.00 L393.50 118.00 L392.50 119.00 L391.50 125.00 L386.00 131.50 L378.50 135.00 L379.50 137.00 L379.50 140.00 L380.50 141.00 L380.50 145.00 L381.50 146.00 L382.50 153.00 L383.00 153.50 L384.50 152.00 L386.50 148.00 L390.00 144.50 L398.00 140.50 L400.00 138.50 L402.00 138.50 L403.50 141.00 L403.50 146.00 L402.50 147.00 L402.50 151.00 L399.50 157.00 L393.00 163.50 L389.00 165.50 L385.50 166.00 L385.50 187.00 L386.00 187.50 L386.50 186.00 L394.00 178.50 L404.00 173.50 L409.00 172.50 L409.50 177.00 L408.50 178.00 L408.50 182.00 L405.50 189.00 L400.00 194.50 L399.00 194.50 L397.00 196.50 L395.00 196.50 L391.00 198.50 L385.50 199.00 L384.50 210.00 L383.50 211.00 L383.50 216.00 L385.00 216.50 L389.00 212.50 L393.00 211.50 L394.00 210.50 L397.00 210.50 L398.00 209.50 L407.00 209.50 L408.00 208.50 L410.00 208.50 L410.50 211.00 L406.50 219.00 L398.00 226.50 L394.00 227.50 L393.00 228.50 L381.00 228.50 L379.50 231.00 L379.50 234.00 L378.50 235.00 L375.50 246.00 L376.00 246.50 L388.00 240.50 L402.00 239.50 L402.50 241.00 L396.50 252.00 L390.00 257.50 L383.00 260.50 L375.00 260.50 L374.00 259.50 L370.00 259.50 L368.50 261.00 L363.50 271.00 L364.00 272.50 L367.00 272.50 L368.00 271.50 L384.00 271.50 L385.00 272.50 L389.00 272.50 L389.50 275.00 L388.50 277.00 L383.00 282.50 L373.00 288.50 L363.00 288.50 L362.00 287.50 L359.00 287.50 L355.00 285.50 L345.50 297.00 L344.50 299.00 L345.00 299.50 L347.00 298.50 L360.00 298.50 L361.00 299.50 L364.00 299.50 L365.00 300.50 L372.00 302.50 L373.50 304.00 L367.00 310.50 L357.00 315.50 L346.00 315.50 L339.00 312.50 L335.00 309.50 L324.50 319.00 L336.00 320.50 L342.00 323.50 L344.00 323.50 L351.50 328.00 L350.00 330.50 L336.00 337.50 L324.00 337.50 L318.00 334.50 L311.00 329.50 L295.50 340.00 L299.00 341.50 L305.00 342.50 L311.00 345.50 L317.00 350.50 L318.00 350.50 L321.50 355.00 L318.00 357.50 L312.00 358.50 L311.00 359.50 L299.00 359.50 L298.00 358.50 L293.00 357.50 L288.00 353.50 L287.00 353.50 L282.00 346.50 L264.50 353.00 L268.00 354.50 L271.00 354.50 L272.00 355.50 L275.00 355.50 L279.00 357.50 L287.00 364.50 L288.00 364.50 L292.50 369.00 L292.50 370.00 Z M1477.50 266.00 L1474.00 266.50 L1473.00 267.50 L1339.00 267.50 L1338.00 268.50 L1205.00 268.50 L1204.00 269.50 L1071.00 269.50 L1070.00 270.50 L873.00 270.50 L872.00 269.50 L739.00 269.50 L738.00 268.50 L604.00 268.50 L603.00 267.50 L470.00 267.50 L469.00 266.50 L465.50 266.00 L600.00 265.50 L601.00 264.50 L735.00 264.50 L736.00 263.50 L869.00 263.50 L870.00 262.50 L1072.00 262.50 L1073.00 263.50 L1207.00 263.50 L1208.00 264.50 L1342.00 264.50 L1343.00 265.50 Z"/>
    <path id="navy-monogram-and-wordmark" fill="#00163B" d="M268.50 208.00 L257.00 218.50 L256.00 218.50 L251.00 222.50 L239.00 228.50 L237.00 228.50 L236.00 229.50 L233.00 229.50 L232.00 230.50 L229.00 230.50 L228.00 231.50 L223.00 231.50 L222.00 232.50 L208.00 232.50 L206.50 231.00 L206.50 203.00 L208.00 201.50 L218.00 201.50 L219.00 200.50 L223.00 200.50 L224.00 199.50 L227.00 199.50 L228.00 198.50 L230.00 198.50 L236.00 195.50 L238.00 193.50 L239.00 193.50 L245.50 187.00 L245.50 186.00 L247.50 184.00 L251.50 176.00 L251.50 174.00 L252.50 173.00 L252.50 170.00 L253.50 169.00 L253.50 153.00 L252.50 152.00 L252.50 149.00 L251.50 148.00 L251.50 146.00 L248.50 140.00 L240.00 130.50 L239.00 130.50 L237.00 128.50 L231.00 125.50 L229.00 125.50 L228.00 124.50 L225.00 124.50 L224.00 123.50 L216.00 123.50 L215.00 122.50 L145.00 122.50 L144.50 122.00 L144.50 92.00 L145.00 91.50 L220.00 91.50 L221.00 92.50 L228.00 92.50 L229.00 93.50 L232.00 93.50 L233.00 94.50 L238.00 95.50 L241.00 97.50 L243.00 97.50 L251.00 101.50 L253.00 103.50 L254.00 103.50 L256.00 105.50 L260.00 107.50 L270.50 118.00 L270.50 119.00 L275.50 125.00 L280.50 135.00 L280.50 137.00 L281.50 138.00 L281.50 140.00 L283.50 144.00 L283.50 147.00 L284.50 148.00 L284.50 155.00 L285.50 156.00 L285.50 168.00 L284.50 169.00 L284.50 175.00 L283.50 176.00 L282.50 183.00 L281.50 184.00 L281.50 186.00 L279.50 189.00 L279.50 191.00 L277.50 195.00 L275.50 197.00 L272.50 203.00 L268.50 207.00 Z M961.00 231.50 L943.00 231.50 L942.00 230.50 L938.00 230.50 L937.00 229.50 L935.00 229.50 L934.00 228.50 L929.00 227.50 L925.00 225.50 L920.00 221.50 L919.00 221.50 L909.50 212.00 L909.50 211.00 L906.50 208.00 L905.50 205.00 L903.50 203.00 L902.50 201.00 L902.50 199.00 L900.50 196.00 L899.50 191.00 L898.50 190.00 L898.50 186.00 L897.50 185.00 L897.50 180.00 L896.50 179.00 L896.50 162.00 L897.50 161.00 L897.50 155.00 L898.50 154.00 L898.50 150.00 L899.50 149.00 L899.50 147.00 L900.50 146.00 L901.50 141.00 L906.50 131.00 L908.50 129.00 L908.50 128.00 L917.00 118.50 L918.00 118.50 L925.00 112.50 L935.00 107.50 L937.00 107.50 L938.00 106.50 L941.00 106.50 L942.00 105.50 L947.00 105.50 L948.00 104.50 L960.00 104.50 L961.00 105.50 L966.00 105.50 L967.00 106.50 L970.00 106.50 L971.00 107.50 L973.00 107.50 L981.00 111.50 L983.00 113.50 L987.00 115.50 L996.50 125.00 L996.50 126.00 L1000.50 131.00 L1005.50 141.00 L1005.50 143.00 L1006.50 144.00 L1006.50 147.00 L1007.50 148.00 L1007.50 151.00 L1008.50 152.00 L1008.50 161.00 L1009.50 162.00 L1009.50 169.00 L1008.50 170.00 L1008.50 179.00 L1007.50 180.00 L1007.50 184.00 L1006.50 185.00 L1006.50 188.00 L1005.50 189.00 L1005.50 191.00 L1003.50 194.00 L1003.50 196.00 L1000.50 202.00 L998.50 204.00 L996.50 208.00 L993.50 211.00 L993.50 212.00 L985.00 220.50 L984.00 220.50 L981.00 223.50 L978.00 224.50 L974.00 227.50 L972.00 227.50 L966.00 230.50 L962.00 230.50 Z M541.00 229.50 L540.50 228.00 L542.50 226.00 L544.50 222.00 L544.50 220.00 L545.50 219.00 L545.50 118.00 L544.50 117.00 L543.50 112.00 L541.50 110.00 L542.00 108.50 L569.00 108.50 L570.00 107.50 L583.00 107.50 L584.00 106.50 L587.00 106.50 L588.00 107.50 L593.00 107.50 L594.00 108.50 L596.00 108.50 L600.00 110.50 L602.00 112.50 L603.00 112.50 L609.50 119.00 L614.50 129.00 L614.50 132.00 L615.50 133.00 L615.50 149.00 L614.50 150.00 L614.50 154.00 L612.50 157.00 L612.50 159.00 L610.50 163.00 L607.50 166.00 L607.50 167.00 L603.00 171.50 L602.00 171.50 L600.00 173.50 L594.00 176.50 L592.00 176.50 L591.00 177.50 L587.00 177.50 L586.00 178.50 L576.00 178.50 L575.00 177.50 L572.00 177.50 L571.00 176.50 L569.00 176.50 L567.00 174.50 L566.00 174.50 L562.50 171.00 L563.00 169.50 L565.00 169.50 L566.00 170.50 L583.00 170.50 L584.00 169.50 L586.00 169.50 L588.00 168.50 L593.50 164.00 L593.50 163.00 L596.50 159.00 L596.50 157.00 L597.50 156.00 L597.50 153.00 L598.50 152.00 L598.50 134.00 L597.50 133.00 L596.50 128.00 L594.50 126.00 L594.50 125.00 L589.00 119.50 L587.00 118.50 L585.00 118.50 L581.00 116.50 L568.00 116.50 L567.00 117.50 L562.00 117.50 L561.50 118.00 L561.50 217.00 L562.50 218.00 L562.50 222.00 L563.50 223.00 L563.50 225.00 L566.50 228.00 L566.00 229.50 Z M651.00 229.50 L627.00 229.50 L626.50 229.00 L629.50 223.00 L629.50 221.00 L630.50 220.00 L630.50 117.00 L626.50 109.00 L627.00 108.50 L651.00 108.50 L651.50 109.00 L648.50 115.00 L648.50 117.00 L647.50 118.00 L647.50 220.00 L648.50 221.00 L649.50 226.00 L651.50 229.00 Z M761.00 229.50 L747.00 229.50 L745.50 228.00 L745.50 227.00 L741.50 222.00 L740.50 219.00 L734.50 211.00 L733.50 208.00 L727.50 200.00 L726.50 197.00 L718.50 186.00 L717.50 183.00 L711.50 175.00 L710.50 172.00 L704.50 164.00 L703.50 161.00 L695.50 150.00 L694.50 147.00 L692.50 145.00 L692.50 144.00 L688.50 139.00 L687.50 136.00 L684.00 131.50 L683.50 132.00 L683.50 220.00 L684.50 221.00 L684.50 223.00 L688.50 229.00 L688.00 229.50 L670.00 229.50 L669.50 228.00 L672.50 224.00 L672.50 222.00 L673.50 221.00 L673.50 216.00 L674.50 215.00 L674.50 122.00 L673.50 121.00 L673.50 116.00 L670.50 110.00 L671.00 108.50 L690.00 108.50 L693.50 115.00 L699.50 123.00 L700.50 126.00 L704.50 131.00 L705.50 134.00 L709.50 139.00 L710.50 142.00 L712.50 144.00 L715.50 150.00 L721.50 158.00 L722.50 161.00 L726.50 166.00 L727.50 169.00 L731.50 174.00 L732.50 177.00 L736.50 182.00 L737.50 185.00 L743.50 193.00 L744.50 196.00 L748.50 201.00 L749.50 204.00 L751.50 206.00 L752.00 207.50 L752.50 207.00 L752.50 117.00 L751.50 116.00 L751.50 113.00 L749.50 109.00 L750.00 108.50 L766.00 108.50 L766.50 110.00 L763.50 114.00 L763.50 116.00 L762.50 117.00 L762.50 120.00 L761.50 121.00 L761.50 229.00 Z M882.00 229.50 L858.00 229.50 L857.50 229.00 L860.50 223.00 L860.50 221.00 L861.50 220.00 L861.50 170.00 L861.00 169.50 L806.00 169.50 L805.50 170.00 L805.50 219.00 L810.50 229.00 L810.00 229.50 L785.00 229.50 L784.50 229.00 L788.50 221.00 L788.50 218.00 L789.50 217.00 L789.50 120.00 L788.50 119.00 L788.50 115.00 L785.50 110.00 L786.00 108.50 L809.00 108.50 L809.50 109.00 L807.50 113.00 L806.50 118.00 L805.50 119.00 L805.50 160.00 L806.00 160.50 L861.00 160.50 L861.50 160.00 L861.50 117.00 L860.50 116.00 L860.50 114.00 L859.50 113.00 L859.50 111.00 L858.50 109.00 L859.00 108.50 L882.00 108.50 L882.50 109.00 L879.50 115.00 L879.50 117.00 L878.50 118.00 L878.50 221.00 L879.50 222.00 L879.50 224.00 L880.50 226.00 L882.50 228.00 Z M1275.50 229.00 L1275.00 229.50 L1247.00 229.50 L1246.50 229.00 L1247.50 227.00 L1247.50 224.00 L1248.50 223.00 L1248.50 219.00 L1247.50 218.00 L1247.50 215.00 L1244.50 209.00 L1244.50 207.00 L1242.50 204.00 L1241.50 199.00 L1239.50 196.00 L1239.50 194.00 L1236.50 188.00 L1236.50 186.00 L1234.50 183.00 L1234.50 181.00 L1233.00 179.50 L1195.00 179.50 L1192.50 184.00 L1192.50 186.00 L1191.50 187.00 L1191.50 189.00 L1190.50 190.00 L1190.50 192.00 L1189.50 193.00 L1189.50 195.00 L1188.50 196.00 L1187.50 201.00 L1185.50 204.00 L1185.50 206.00 L1184.50 207.00 L1184.50 209.00 L1183.50 210.00 L1183.50 212.00 L1181.50 216.00 L1181.50 225.00 L1183.50 228.00 L1183.00 229.50 L1087.00 229.50 L1086.50 228.00 L1088.50 226.00 L1090.50 222.00 L1090.50 220.00 L1091.50 219.00 L1091.50 118.00 L1090.50 117.00 L1089.50 112.00 L1087.50 109.00 L1088.00 108.50 L1112.00 108.50 L1112.50 109.00 L1109.50 114.00 L1109.50 116.00 L1108.50 117.00 L1108.50 120.00 L1107.50 121.00 L1107.50 220.00 L1108.00 220.50 L1139.00 220.50 L1140.00 219.50 L1146.00 219.50 L1147.00 218.50 L1150.00 218.50 L1151.00 217.50 L1153.00 217.50 L1157.00 215.50 L1159.00 213.50 L1160.00 213.50 L1164.00 208.50 L1164.50 212.00 L1163.50 213.00 L1163.50 216.00 L1162.50 217.00 L1162.50 221.00 L1161.50 222.00 L1161.50 226.00 L1160.50 227.00 L1161.00 228.50 L1167.50 222.00 L1167.50 221.00 L1169.50 219.00 L1172.50 213.00 L1172.50 211.00 L1173.50 210.00 L1174.50 205.00 L1176.50 202.00 L1176.50 200.00 L1177.50 199.00 L1178.50 194.00 L1180.50 191.00 L1180.50 189.00 L1181.50 188.00 L1181.50 186.00 L1182.50 185.00 L1183.50 180.00 L1185.50 177.00 L1185.50 175.00 L1186.50 174.00 L1186.50 172.00 L1187.50 171.00 L1188.50 166.00 L1190.50 163.00 L1190.50 161.00 L1191.50 160.00 L1192.50 155.00 L1194.50 152.00 L1194.50 150.00 L1195.50 149.00 L1195.50 147.00 L1196.50 146.00 L1197.50 141.00 L1199.50 138.00 L1199.50 136.00 L1200.50 135.00 L1201.50 130.00 L1203.50 127.00 L1203.50 125.00 L1204.50 124.00 L1204.50 115.00 L1201.50 109.00 L1202.00 108.50 L1222.00 108.50 L1223.50 110.00 L1224.50 115.00 L1226.50 118.00 L1226.50 120.00 L1228.50 123.00 L1229.50 128.00 L1233.50 136.00 L1234.50 141.00 L1238.50 149.00 L1239.50 154.00 L1243.50 162.00 L1244.50 167.00 L1248.50 175.00 L1249.50 180.00 L1251.50 183.00 L1252.50 188.00 L1254.50 191.00 L1254.50 193.00 L1256.50 196.00 L1257.50 201.00 L1261.50 209.00 L1262.50 214.00 L1265.50 218.00 L1265.50 219.00 L1267.50 221.00 L1267.50 222.00 L1273.00 227.50 L1274.00 227.50 Z M1368.00 229.50 L1353.00 229.50 L1352.50 229.00 L1352.50 226.00 L1351.50 225.00 L1351.50 222.00 L1350.50 221.00 L1350.50 217.00 L1349.50 216.00 L1349.50 213.00 L1348.50 212.00 L1348.50 208.00 L1347.50 207.00 L1347.50 204.00 L1346.50 203.00 L1346.50 199.00 L1345.50 198.00 L1345.50 195.00 L1344.50 194.00 L1344.50 191.00 L1343.50 190.00 L1343.50 186.00 L1342.50 185.00 L1342.50 182.00 L1341.50 181.00 L1341.50 177.00 L1340.50 176.00 L1340.50 173.00 L1339.50 172.00 L1339.50 168.00 L1338.50 167.00 L1338.50 164.00 L1337.50 163.00 L1337.50 159.00 L1336.50 158.00 L1336.50 155.00 L1335.50 154.00 L1335.50 151.00 L1334.50 150.00 L1334.50 146.00 L1333.50 145.00 L1333.50 142.00 L1332.50 141.00 L1332.50 137.00 L1331.50 136.00 L1331.50 133.00 L1330.50 132.00 L1330.50 128.00 L1329.50 127.00 L1329.00 123.50 L1328.50 127.00 L1327.50 128.00 L1327.50 131.00 L1326.50 132.00 L1326.50 135.00 L1325.50 136.00 L1325.50 139.00 L1324.50 140.00 L1324.50 144.00 L1323.50 145.00 L1323.50 148.00 L1322.50 149.00 L1322.50 152.00 L1321.50 153.00 L1321.50 157.00 L1320.50 158.00 L1320.50 161.00 L1319.50 162.00 L1319.50 165.00 L1318.50 166.00 L1318.50 170.00 L1317.50 171.00 L1317.50 174.00 L1316.50 175.00 L1316.50 178.00 L1315.50 179.00 L1315.50 183.00 L1314.50 184.00 L1314.50 187.00 L1313.50 188.00 L1313.50 191.00 L1312.50 192.00 L1312.50 196.00 L1311.50 197.00 L1311.50 200.00 L1310.50 201.00 L1310.50 204.00 L1309.50 205.00 L1309.50 209.00 L1308.50 210.00 L1308.50 213.00 L1307.50 214.00 L1307.50 217.00 L1306.50 218.00 L1306.50 222.00 L1305.50 223.00 L1305.50 226.00 L1304.50 227.00 L1304.50 229.00 L1304.00 229.50 L1290.00 229.50 L1289.50 229.00 L1289.50 227.00 L1288.50 226.00 L1288.50 222.00 L1287.50 221.00 L1287.50 218.00 L1286.50 217.00 L1286.50 214.00 L1285.50 213.00 L1285.50 209.00 L1284.50 208.00 L1284.50 205.00 L1283.50 204.00 L1283.50 201.00 L1282.50 200.00 L1282.50 196.00 L1281.50 195.00 L1281.50 192.00 L1280.50 191.00 L1280.50 188.00 L1279.50 187.00 L1279.50 184.00 L1278.50 183.00 L1278.50 179.00 L1277.50 178.00 L1277.50 175.00 L1276.50 174.00 L1276.50 171.00 L1275.50 170.00 L1275.50 166.00 L1274.50 165.00 L1274.50 162.00 L1273.50 161.00 L1273.50 158.00 L1272.50 157.00 L1272.50 153.00 L1271.50 152.00 L1271.50 149.00 L1270.50 148.00 L1270.50 145.00 L1269.50 144.00 L1269.50 141.00 L1268.50 140.00 L1268.50 136.00 L1267.50 135.00 L1267.50 132.00 L1266.50 131.00 L1266.50 128.00 L1265.50 127.00 L1265.50 123.00 L1264.50 122.00 L1264.50 120.00 L1262.50 116.00 L1259.50 113.00 L1259.50 112.00 L1257.00 109.50 L1255.50 109.00 L1256.00 108.50 L1283.00 108.50 L1283.50 109.00 L1282.50 110.00 L1282.50 113.00 L1281.50 114.00 L1281.50 123.00 L1282.50 124.00 L1282.50 127.00 L1283.50 128.00 L1283.50 131.00 L1284.50 132.00 L1284.50 136.00 L1285.50 137.00 L1285.50 140.00 L1286.50 141.00 L1286.50 145.00 L1287.50 146.00 L1287.50 149.00 L1288.50 150.00 L1288.50 153.00 L1289.50 154.00 L1289.50 158.00 L1290.50 159.00 L1290.50 162.00 L1291.50 163.00 L1291.50 166.00 L1292.50 167.00 L1292.50 171.00 L1293.50 172.00 L1293.50 175.00 L1294.50 176.00 L1294.50 179.00 L1295.50 180.00 L1295.50 184.00 L1296.50 185.00 L1296.50 188.00 L1297.50 189.00 L1297.50 192.00 L1298.50 193.00 L1298.50 197.00 L1299.50 198.00 L1300.00 201.50 L1301.50 201.00 L1301.50 197.00 L1302.50 196.00 L1302.50 193.00 L1303.50 192.00 L1303.50 189.00 L1304.50 188.00 L1304.50 184.00 L1305.50 183.00 L1305.50 180.00 L1306.50 179.00 L1306.50 175.00 L1307.50 174.00 L1307.50 171.00 L1308.50 170.00 L1308.50 167.00 L1309.50 166.00 L1309.50 162.00 L1310.50 161.00 L1310.50 158.00 L1311.50 157.00 L1311.50 153.00 L1312.50 152.00 L1312.50 149.00 L1313.50 148.00 L1313.50 145.00 L1314.50 144.00 L1314.50 140.00 L1315.50 139.00 L1315.50 136.00 L1316.50 135.00 L1316.50 132.00 L1317.50 131.00 L1317.50 127.00 L1318.50 126.00 L1318.50 123.00 L1319.50 122.00 L1319.50 118.00 L1320.50 117.00 L1320.50 114.00 L1319.50 113.00 L1319.50 111.00 L1317.50 109.00 L1318.00 108.50 L1345.00 108.50 L1345.50 112.00 L1344.50 113.00 L1344.50 121.00 L1345.50 122.00 L1345.50 125.00 L1346.50 126.00 L1346.50 130.00 L1347.50 131.00 L1347.50 134.00 L1348.50 135.00 L1348.50 139.00 L1349.50 140.00 L1349.50 143.00 L1350.50 144.00 L1350.50 147.00 L1351.50 148.00 L1351.50 152.00 L1352.50 153.00 L1352.50 156.00 L1353.50 157.00 L1353.50 161.00 L1354.50 162.00 L1354.50 165.00 L1355.50 166.00 L1355.50 170.00 L1356.50 171.00 L1356.50 174.00 L1357.50 175.00 L1357.50 179.00 L1358.50 180.00 L1358.50 183.00 L1359.50 184.00 L1359.50 187.00 L1360.50 188.00 L1360.50 192.00 L1361.50 193.00 L1361.50 196.00 L1362.50 197.00 L1362.50 201.00 L1363.50 202.00 L1364.00 205.50 L1364.50 202.00 L1365.50 201.00 L1365.50 198.00 L1366.50 197.00 L1366.50 194.00 L1367.50 193.00 L1367.50 190.00 L1368.50 189.00 L1368.50 185.00 L1369.50 184.00 L1369.50 181.00 L1370.50 180.00 L1371.50 173.00 L1372.50 172.00 L1372.50 168.00 L1373.50 167.00 L1373.50 164.00 L1374.50 163.00 L1374.50 160.00 L1375.50 159.00 L1375.50 155.00 L1376.50 154.00 L1376.50 151.00 L1377.50 150.00 L1377.50 147.00 L1378.50 146.00 L1378.50 143.00 L1379.50 142.00 L1379.50 138.00 L1380.50 137.00 L1380.50 134.00 L1381.50 133.00 L1381.50 130.00 L1382.50 129.00 L1382.50 126.00 L1383.50 125.00 L1383.50 116.00 L1379.50 109.00 L1380.00 108.50 L1402.00 108.50 L1402.50 109.00 L1401.00 109.50 L1396.50 115.00 L1396.50 116.00 L1394.50 118.00 L1394.50 120.00 L1392.50 124.00 L1392.50 127.00 L1391.50 128.00 L1391.50 131.00 L1390.50 132.00 L1390.50 136.00 L1389.50 137.00 L1389.50 140.00 L1388.50 141.00 L1388.50 145.00 L1387.50 146.00 L1387.50 149.00 L1386.50 150.00 L1386.50 153.00 L1385.50 154.00 L1385.50 158.00 L1384.50 159.00 L1384.50 162.00 L1383.50 163.00 L1383.50 167.00 L1382.50 168.00 L1382.50 171.00 L1381.50 172.00 L1381.50 175.00 L1380.50 176.00 L1380.50 180.00 L1379.50 181.00 L1379.50 184.00 L1378.50 185.00 L1378.50 188.00 L1377.50 189.00 L1377.50 193.00 L1376.50 194.00 L1376.50 197.00 L1375.50 198.00 L1375.50 202.00 L1374.50 203.00 L1374.50 206.00 L1373.50 207.00 L1373.50 210.00 L1372.50 211.00 L1372.50 215.00 L1371.50 216.00 L1371.50 219.00 L1370.50 220.00 L1370.50 224.00 L1369.50 225.00 L1369.50 228.00 Z M947.00 225.50 L957.00 225.50 L958.00 224.50 L961.00 224.50 L962.00 223.50 L964.00 223.50 L970.00 220.50 L977.50 214.00 L977.50 213.00 L983.50 206.00 L988.50 196.00 L988.50 194.00 L989.50 193.00 L989.50 190.00 L990.50 189.00 L990.50 186.00 L991.50 185.00 L991.50 179.00 L992.50 178.00 L992.50 158.00 L991.50 157.00 L991.50 151.00 L990.50 150.00 L989.50 143.00 L988.50 142.00 L988.50 140.00 L986.50 137.00 L986.50 135.00 L985.50 133.00 L983.50 131.00 L982.50 128.00 L979.50 125.00 L979.50 124.00 L974.00 118.50 L973.00 118.50 L971.00 116.50 L965.00 113.50 L963.00 113.50 L962.00 112.50 L957.00 112.50 L956.00 111.50 L953.00 111.50 L952.00 112.50 L945.00 112.50 L944.00 113.50 L939.00 114.50 L935.00 116.50 L933.00 118.50 L932.00 118.50 L925.50 125.00 L925.50 126.00 L922.50 129.00 L918.50 137.00 L918.50 139.00 L916.50 143.00 L916.50 146.00 L915.50 147.00 L915.50 151.00 L914.50 152.00 L914.50 160.00 L913.50 161.00 L913.50 178.00 L914.50 179.00 L914.50 186.00 L915.50 187.00 L915.50 191.00 L916.50 192.00 L916.50 195.00 L917.50 196.00 L917.50 198.00 L922.50 208.00 L924.50 210.00 L924.50 211.00 L933.00 219.50 L934.00 219.50 L936.00 221.50 L940.00 223.50 L942.00 223.50 L943.00 224.50 L946.00 224.50 Z M1230.00 170.50 L1230.50 169.00 L1228.50 166.00 L1228.50 164.00 L1226.50 161.00 L1226.50 159.00 L1222.50 151.00 L1221.50 146.00 L1219.50 143.00 L1219.50 141.00 L1217.50 138.00 L1217.50 136.00 L1215.50 133.00 L1215.50 131.00 L1213.00 127.50 L1211.50 130.00 L1211.50 132.00 L1210.50 133.00 L1210.50 135.00 L1209.50 136.00 L1208.50 141.00 L1206.50 144.00 L1206.50 146.00 L1205.50 147.00 L1204.50 152.00 L1202.50 155.00 L1202.50 157.00 L1201.50 158.00 L1201.50 160.00 L1200.50 161.00 L1200.50 163.00 L1199.50 164.00 L1199.50 166.00 L1197.50 170.00 L1198.00 170.50 Z M207.00 271.50 L145.00 271.50 L144.50 271.00 L144.50 153.00 L145.00 152.50 L174.00 152.50 L174.50 153.00 L174.50 160.00 L175.50 161.00 L175.50 182.00 L174.50 183.00 L174.50 232.00 L175.50 233.00 L175.50 240.00 L176.00 240.50 L207.00 240.50 L207.50 241.00 L207.50 271.00 Z"/>
  </g>
</svg>
